<svg xmlns:dc="http://purl.org/dc/elements/1.1/" xmlns:cc="http://creativecommons.org/ns#" xmlns:rdf="http://www.w3.org/1999/02/22-rdf-syntax-ns#" xmlns:svg="http://www.w3.org/2000/svg" xmlns="http://www.w3.org/2000/svg" xmlns:sodipodi="http://sodipodi.sourceforge.net/DTD/sodipodi-0.dtd" xmlns:inkscape="http://www.inkscape.org/namespaces/inkscape" viewBox="-6 0 80 100.19332125" version="1.1" x="0px" y="0px"><path d="m 41.356893,0.82481591 c -0.710569,0 -1.287687,0.57610879 -1.287687,1.28740269 l 0,15.2258954 -4.311385,-3.697193 c -0.54029,-0.462698 -1.35308,-0.400207 -1.815775,0.139365 -0.462695,0.540285 -0.400207,1.352791 0.139366,1.81548 l 0,8.64e-4 6.437562,5.517869 0.0067,0.0048 c 0.05317,0.04522 0.110543,0.08531 0.170176,0.12123 0.0086,0.0047 0.01657,0.01007 0.02447,0.01444 0.0582,0.03306 0.119185,0.06184 0.181692,0.0855 0.01006,0.0038 0.01931,0.0076 0.02937,0.01093 0.06251,0.02223 0.127397,0.03876 0.192059,0.05101 0.01006,0.0019 0.01859,0.0028 0.02937,0.0047 0.135073,0.02442 0.273808,0.02442 0.408881,0 0.01006,-0.0019 0.01859,-0.0019 0.02937,-0.0047 0.06466,-0.01225 0.129263,-0.02869 0.19177,-0.05101 0.0093,-0.0038 0.0196,-0.0076 0.02966,-0.01093 0.06251,-0.02375 0.123498,-0.05244 0.181693,-0.0855 0.0079,-0.0048 0.0157,-0.0095 0.02361,-0.01444 0.06035,-0.03591 0.117153,-0.076 0.171038,-0.12123 l 0.0064,-0.0048 6.437565,-5.517869 c 0.539573,-0.462688 0.602061,-1.275917 0.139365,-1.815489 -0.462695,-0.540284 -1.275196,-0.60306 -1.815487,-0.13965 l -4.312249,3.696053 0,-15.2253254 c 0,-0.7112939 -0.576112,-1.28740269 -1.287397,-1.28740269 z M -2.786076,14.262297 c -0.7105679,0 -1.2873977,0.576404 -1.2873977,1.287688 0,0.711285 0.5768298,1.287403 1.2873977,1.287403 l 0,5.7e-4 7.8542485,0 c 2.5785932,-0.01007 4.7784857,1.863027 5.1786725,4.410729 l 6.21556,46.612376 c 0.0014,0.01007 0.0028,0.02071 0.0043,0.03078 0.587708,3.807897 3.872519,6.613609 7.724962,6.598523 l 1.080653,0 c 0.474191,2.794854 2.895574,4.839474 5.730663,4.839474 2.834368,0 5.255605,-2.04462 5.729796,-4.839474 l 10.754709,0 c 0.4979,2.917708 3.108024,4.995645 6.063813,4.82681 2.955072,-0.169565 5.311008,-2.53214 5.472663,-5.487925 0.161657,-2.955793 -1.923205,-5.560856 -4.842354,-6.050857 -2.919147,-0.490714 -5.740583,1.29031 -6.553893,4.136891 l -11.035742,0 c -0.711286,-2.496687 -2.993158,-4.218088 -5.588992,-4.218088 -2.595838,0 -4.877708,1.721401 -5.588994,4.218088 l -1.22146,0 c -2.57931,0.01007 -4.779348,-1.863606 -5.179536,-4.411299 l -1.873076,-14.049083 40.170493,0 c 3.332268,-0.0019 6.297288,-2.11225 7.390083,-5.259868 l 7.301972,-21.074338 c 0.13651,-0.393718 0.07382,-0.829065 -0.167583,-1.168187 -0.242125,-0.339834 -0.632843,-0.541044 -1.049555,-0.541044 l -57.385802,0 -0.602667,-4.519856 c -0.0014,-0.01074 -0.003,-0.0209 -0.0052,-0.03164 -0.58699,-3.807906 -3.8717998,-6.613476 -7.7249602,-6.597668 l -7.8528093,0 z m 16.528562,13.724278 55.234571,0 -6.709959,19.365097 c -0.732121,2.111585 -2.721504,3.527456 -4.956668,3.528178 l -40.515162,0 -3.052782,-22.893275 z m 17.259075,42.286302 2.88e-4,0 2.89e-4,0 c 1.788727,3.13e-4 3.238794,1.449995 3.238794,3.238799 0,1.788993 -1.449802,3.239653 -3.238794,3.239653 -1.788994,0 -3.239658,-1.45066 -3.239658,-3.239653 0.0022,-1.78736 1.451074,-3.236329 3.239081,-3.238799 z m 22.214881,0 c 1.788993,0 3.239082,1.449805 3.239082,3.238799 0,1.788993 -1.450089,3.239653 -3.239082,3.239653 -1.788993,0 -3.23937,-1.45066 -3.23937,-3.239653 0.0022,-1.787559 1.451095,-3.236643 3.23937,-3.238799 z"/></svg>