<svg xmlns="http://www.w3.org/2000/svg" viewBox="0 0 64 80" x="0px" y="0px"><g><path d="M45.16,19c-.6-1.65-1.12-3.63-1.42-4.84a1,1,0,0,0-.38-1.93H37.42l3.67-2.93a1,1,0,1,0-1.25-1.56l-5.62,4.49H20.64a1,1,0,0,0-.38,1.93c-.3,1.21-.82,3.19-1.42,4.84a1.33,1.33,0,0,0-.05.34V50.39a1.27,1.27,0,0,0,.05.34c.95,2.63,1.7,5,1.7,5.07a1,1,0,0,0,1,.7h21a1,1,0,0,0,1-.7s.75-2.44,1.7-5.07a1.27,1.27,0,0,0,.05-.34V19.32A1.33,1.33,0,0,0,45.16,19ZM41.77,54.5H22.23c-.28-.89-.82-2.53-1.44-4.28V20.32h18.6a1,1,0,0,0,0-2H21.18c.5-1.59.9-3.19,1.12-4.11H41.7c.28,1.15.84,3.36,1.51,5.28v29.9H23.79a1,1,0,0,0,0,2h19C42.36,52.68,42,53.81,41.77,54.5ZM32,43a8.65,8.65,0,1,0-8.64-8.64A8.65,8.65,0,0,0,32,43Zm6.64-8.64A6.65,6.65,0,0,1,32,41,6.52,6.52,0,0,1,29,40.25C31.3,39,36.31,35.6,36.89,29.87A6.66,6.66,0,0,1,38.64,34.36ZM32,27.71a6.47,6.47,0,0,1,2.91.69c.25,6.42-6.53,9.94-7.74,10.51A6.64,6.64,0,0,1,32,27.71Z"/></g></svg>