<svg xmlns="http://www.w3.org/2000/svg" xmlns:xlink="http://www.w3.org/1999/xlink" version="1.1" x="0px" y="0px" viewBox="0 0 100 125" enable-background="new 0 0 100 100" xml:space="preserve"><g><path d="M7.943,71.46c0.039,0.139,0.094,0.272,0.172,0.394c2.897,6.752,7.694,12.524,13.698,16.662l0.023,0.017l0.025,0.018   l0.014,0.01C27.923,92.614,35.254,95,43.13,95c20.987-0.003,38.074-17.092,38.077-38.129c0-0.802-0.65-1.451-1.451-1.451   c-0.802,0-1.451,0.65-1.451,1.451c0,3.057-0.392,6.022-1.125,8.85l-11.993-3.902c-0.419-0.136-0.871-0.077-1.24,0.163l-5.125,3.331   l-0.195,0.152c-0.63,0.578-1.322,0.812-2.026,0.817c-0.682,0.001-1.367-0.241-1.906-0.675c-0.539-0.436-0.935-1.042-1.085-1.838   l-1.342-7.861l-0.019-0.092c-0.387-1.679-1.434-3.188-3.042-4.023l-0.148-0.068l-2.498-0.975c-1.033-0.582-1.567-1.581-1.575-2.67   c0.001-0.393,0.048-0.7,0.145-0.984c0.099-0.284,0.25-0.561,0.531-0.89l0.028-0.034c0.863-1.069,1.281-2.37,1.279-3.65   c0.001-1.892-0.903-3.784-2.598-4.981l-2.684-1.917l-0.039-0.026c-1.043-0.697-2.227-1.027-3.378-1.026   c-2.161,0.001-4.249,1.14-5.359,3.13l-0.016,0.029l-1.922,3.651l-0.035,0.071c-0.231,0.501-0.582,0.882-1.033,1.156   c-0.423,0.256-0.94,0.406-1.509,0.424l-7.446-1.502c-0.103-0.021-0.182-0.029-0.287-0.029c-0.749,0-1.413-0.237-1.924-0.625   c-0.51-0.391-0.867-0.921-1.016-1.575l-0.011-0.047l-1.357-5.2c0.601-0.702,1.222-1.387,1.876-2.04   c6.383-6.374,15.181-10.32,24.901-10.32c3.732,0,7.328,0.585,10.704,1.668c0.763,0.245,1.581-0.176,1.826-0.939   c0.245-0.763-0.176-1.581-0.939-1.826l0,0c-3.657-1.173-7.554-1.806-11.591-1.806C22.092,18.796,5.003,35.884,5.001,56.871   C5,61.717,5.88,66.316,7.588,70.582l0.02,0.109C7.71,70.952,7.836,71.201,7.943,71.46z M10.933,71.06l2.442-5.412   c0.387-0.834,0.977-1.471,1.675-1.909c0.698-0.437,1.503-0.667,2.293-0.666c1.216,0.008,2.324,0.459,3.235,1.483l-0.003-0.003   c1.403,1.604,3.411,2.472,5.47,2.471h2.752c1.224,0.001,2.304,0.492,3.097,1.288c0.791,0.797,1.271,1.883,1.272,3.071   c0,0.147-0.008,0.298-0.023,0.452l-0.35,3.456c-0.294,2.902-1.943,5.494-4.447,6.99l-5.577,3.332   C17.633,81.893,13.503,76.875,10.933,71.06z M14.111,36.965l0.789,3.026l0.003-0.001c0.307,1.312,1.061,2.431,2.076,3.2   c0.966,0.735,2.166,1.15,3.441,1.198l7.576,1.528c0.103,0.021,0.182,0.029,0.287,0.029c1.115,0,2.195-0.29,3.121-0.85   c0.904-0.545,1.655-1.358,2.132-2.362l0.003,0.002l1.909-3.626c0.563-1.02,1.677-1.634,2.819-1.633   c0.604,0.001,1.204,0.167,1.76,0.534l2.659,1.899l0.007,0.005c0.904,0.638,1.367,1.63,1.369,2.609   c-0.002,0.661-0.208,1.295-0.637,1.829l0.002,0.002c-0.473,0.558-0.829,1.165-1.045,1.797c-0.223,0.645-0.304,1.299-0.303,1.931   c-0.008,2.1,1.115,4.162,3.13,5.248l0.164,0.076l2.513,0.981c0.797,0.443,1.278,1.1,1.529,2.085l1.333,7.806l0.004,0.02   c0.273,1.487,1.067,2.731,2.122,3.575c1.055,0.846,2.368,1.313,3.724,1.314c1.319,0.004,2.679-0.477,3.803-1.439l0.001,0.002   l4.544-2.954l11.38,3.703c-1.767,5.043-4.641,9.568-8.343,13.275c-6.376,6.38-15.162,10.325-24.854,10.325   c-6.445,0-12.478-1.73-17.654-4.719l4.359-2.605c3.292-1.967,5.46-5.374,5.847-9.19l0.35-3.458   c0.025-0.249,0.038-0.497,0.037-0.743c0-1.982-0.807-3.802-2.115-5.117c-1.306-1.317-3.136-2.146-5.157-2.145h-2.752   c-1.251-0.001-2.447-0.521-3.286-1.48l-0.003-0.003c-1.438-1.645-3.427-2.476-5.414-2.468c-1.346,0-2.676,0.385-3.833,1.109   c-1.157,0.723-2.142,1.795-2.769,3.149l-0.006,0.013l-1.257,2.786c-1.033-3.263-1.573-6.717-1.574-10.357   C7.904,49.486,10.199,42.632,14.111,36.965z"/><polygon points="44.368,37.541 44.368,37.541 44.375,37.546  "/><path d="M93.208,6.152l-0.001-0.007L93.2,6.118l-0.035-0.101l-0.055-0.159l-0.068-0.122l-0.072-0.122l-0.094-0.113l-0.088-0.099   l-0.111-0.09l-0.109-0.083l-0.121-0.065L92.32,5.104l-0.141-0.043l-0.129-0.035L91.875,5.01L91.777,5l-0.019,0.001l-0.032,0.002   c-2.302,0.025-5.089,0.486-8.034,1.452c-4.44,1.462-9.233,4.077-12.966,8.19c-3.734,4.104-6.358,9.752-6.349,16.972   c0,2.881,0.411,6.009,1.312,9.394l0.016,0.042l0.055,0.145l0.054,0.122l0.076,0.12l0.08,0.114l0.095,0.101l0.104,0.099l0.107,0.077   l0.13,0.082c-1.684,1.721-3.346,3.312-4.948,4.812c-0.585,0.548-0.615,1.467-0.067,2.052c0.548,0.585,1.467,0.615,2.052,0.067   c1.84-1.724,3.785-3.587,5.763-5.649c3.791,1.591,7.125,2.348,10.066,2.35c2.943,0.004,5.497-0.766,7.582-2.146   c1.565-1.031,2.86-2.389,3.912-3.959c1.578-2.357,2.624-5.189,3.29-8.257c0.664-3.07,0.945-6.384,0.945-9.728   C94.998,16.135,94.287,10.738,93.208,6.152z M89.172,36.448c-1.024,1.939-2.317,3.473-3.917,4.529   c-1.604,1.053-3.532,1.662-5.984,1.666c-2.211,0.002-4.855-0.522-7.953-1.718c3.332-3.701,6.693-8.034,9.761-13.327   c0.402-0.694,0.166-1.582-0.528-1.984c-0.694-0.402-1.582-0.166-1.984,0.528l0,0c-3.154,5.437-6.618,9.817-10.063,13.56   l-0.159-0.075c-0.725-2.913-1.064-5.583-1.064-8.008c0.002-4.35,1.028-7.947,2.681-10.952c2.476-4.5,6.412-7.689,10.529-9.757   C84.078,9.1,87.805,8.17,90.633,7.953c0.887,4.122,1.464,8.871,1.464,13.503C92.103,27.111,91.224,32.579,89.172,36.448z"/></g></svg>