<svg xmlns="http://www.w3.org/2000/svg" xmlns:xlink="http://www.w3.org/1999/xlink" version="1.1" x="0px" y="0px" viewBox="0 0 100 125" style="enable-background:new 0 0 100 100;" xml:space="preserve"><g><path d="M95.8,50.3L84.3,37l11.4-13.3c0.2-0.2,0.3-0.5,0.2-0.8s-0.2-0.6-0.5-0.7l-32-17c-0.4-0.2-0.9-0.1-1.2,0.2L50,18.5L37.7,5.3   c-0.3-0.3-0.8-0.4-1.2-0.2l-32,17c-0.3,0.1-0.5,0.4-0.5,0.7s0,0.6,0.2,0.8L15.7,37L4.2,50.3C4,50.6,4,50.9,4,51.2   c0.1,0.3,0.2,0.6,0.5,0.7L16,58.2V76c0,0.4,0.2,0.7,0.5,0.9l33,18c0,0,0.1,0,0.1,0.1c0,0,0.1,0,0.1,0c0.1,0,0.2,0,0.3,0   s0.2,0,0.3,0c0,0,0.1,0,0.1,0c0,0,0.1,0,0.1-0.1l33-18c0.3-0.2,0.5-0.5,0.5-0.9V58.2l11.5-6.3c0.3-0.1,0.4-0.4,0.5-0.7   C96,50.9,96,50.6,95.8,50.3z M63.2,7.2l30.2,16.1L82.8,35.7l-31.1-16L63.2,7.2z M6.6,23.3L36.8,7.2l11.6,12.5l-31.1,16L6.6,23.3z    M17.2,56.5L6.6,50.7l10.7-12.4l31.1,16.9L35.8,66.8l-18.1-9.9C17.6,56.7,17.4,56.6,17.2,56.5z M49,92.3L18,75.4V59.3l17.5,9.6   C35.7,69,35.8,69,36,69c0.2,0,0.5-0.1,0.7-0.3L49,57.3V92.3z M50,53.9L19.1,37L50,21.1L80.9,37L50,53.9z M82,75.4L51,92.3v-35   l12.3,11.4c0.2,0.2,0.4,0.3,0.7,0.3c0.2,0,0.3,0,0.5-0.1L82,59.3V75.4z M64.2,66.8L51.7,55.2l31.1-16.9l10.7,12.4L64.2,66.8z"/></g></svg>