<svg xmlns="http://www.w3.org/2000/svg" viewBox="0 0 64 80" x="0px" y="0px"><title>Food Collection - 25 - 64 - Expanded - Stroke 2- 2020</title><g data-name="Layer 2"><g><path d="M56.62,14.4H33.55a1,1,0,0,1-1-1V7.92a1,1,0,0,1,1-1H56.62a1,1,0,0,1,1,1V13.4A1,1,0,0,1,56.62,14.4Zm-22.07-2H55.62V8.92H34.55Z"/><path d="M52.25,26.43H29.17a1,1,0,0,1-.94-1.34l4.38-12a1,1,0,0,1,.94-.65H56.62a1,1,0,0,1,.94,1.34l-4.38,12A1,1,0,0,1,52.25,26.43Zm-21.65-2H51.54l3.66-10h-21Z"/><path d="M52.25,56H29.17a1,1,0,0,1-1-1V25.43a1,1,0,0,1,1-1H52.25a1,1,0,0,1,1,1V55A1,1,0,0,1,52.25,56ZM30.17,54H51.25V26.43H30.17Z"/><path d="M52.25,56a1,1,0,0,1-.75-1.66L59,45.85V16.13l-2.92-1.89a1,1,0,1,1,1.09-1.68l3.37,2.19a1,1,0,0,1,.46.83V46.23a1,1,0,0,1-.25.66L53,55.64A1,1,0,0,1,52.25,56Z"/><path d="M52.25,26.43a1,1,0,0,1-.75-1.66L59.25,16a1,1,0,1,1,1.5,1.32L53,26.1A1,1,0,0,1,52.25,26.43Z"/><path d="M20.42,57.08H5.09a1,1,0,0,1-1-1L3,33.14a1,1,0,0,1,.28-.74A1,1,0,0,1,4,32.09H21.51a1,1,0,0,1,1,1l-1.1,23A1,1,0,0,1,20.42,57.08Zm-14.37-2H19.46l1-21H5.05Z"/><path d="M4.31,40.58a1,1,0,0,1-1-1A1.92,1.92,0,0,1,4,38.11c1.09-.93,3.29-1.1,6.7-.53a16.4,16.4,0,0,0,10.12-1.36A1,1,0,0,1,21.8,38a18.28,18.28,0,0,1-11.4,1.57c-4-.67-5,0-5.1.1A1,1,0,0,1,4.31,40.58Z"/><path d="M41.21,47.23a6.48,6.48,0,1,1,6.47-6.48A6.48,6.48,0,0,1,41.21,47.23Zm0-10.95a4.48,4.48,0,1,0,4.47,4.47A4.47,4.47,0,0,0,41.21,36.28Z"/><path d="M41.21,36.28c-3,0-4.78-.67-5.35-2-.76-1.85,1.14-3.82,1.36-4a1,1,0,0,1,1-.26,5.4,5.4,0,0,1,3.66,2.47,4.25,4.25,0,0,1,.33,3.19A1,1,0,0,1,41.21,36.28Zm-3-4.23c-.37.5-.68,1.12-.55,1.42,0,.08.35.67,2.61.79a2.08,2.08,0,0,0-.25-.91A3.15,3.15,0,0,0,38.26,32.05Z"/></g></g></svg>