<svg xmlns="http://www.w3.org/2000/svg" xmlns:xlink="http://www.w3.org/1999/xlink" version="1.1" x="0px" y="0px" viewBox="0 0 512 640" style="enable-background:new 0 0 512 512;" xml:space="preserve"><g><path d="M493.897,67.184l-48.899-48.909c-3.033-3.033-7.96-3.033-10.993,0l-41.697,41.688c-1.44,1.45-2.274,3.431-2.274,5.487   c0,0.733,0.224,1.425,0.425,2.118l-5.865,3.909c-13.457,2.246-95.714,17.825-137.562,69.265   c-7.43,9.145-194.915,196.09-214.863,214.967c-3.459,3.279-6.349,6.823-8.595,10.557c-5.241,8.737-12.632,26.345-3.232,45.905   c4.941,10.307,15.141,16.214,28.027,17.541c-0.832,8.331,1.965,16.776,8.079,22.905l2.682,2.653   c5.544,5.553,12.964,8.434,20.214,8.434c0.822,0,1.62-0.188,2.435-0.263c0.774,8.798,3.952,16.559,9.429,22.021   c2.417,2.464,5.25,4.492,8.444,6.027c6.823,3.279,13.4,4.511,19.437,4.511c11.334,0,20.782-4.34,26.468-7.752   c3.734-2.236,7.288-5.136,10.566-8.605c18.896-19.977,205.879-207.481,214.958-214.873c51.42-41.83,67.019-124.058,69.255-137.543   l3.761-5.615c0.845,0.301,1.72,0.507,2.607,0.507c1.99,0,3.98-0.758,5.496-2.274l41.697-41.688c1.44-1.45,2.274-3.431,2.274-5.487   C496.171,70.614,495.337,68.634,493.897,67.184z M144.835,468.973c-2.312,2.445-4.748,4.454-7.259,5.951   c-7.411,4.454-18.821,8.491-31.188,2.578c-1.554-0.739-2.947-1.744-4.16-2.976c-3.391-3.374-5.193-8.746-5.203-15.165   c13-2.983,27.284-2.611,27.454-2.594c4.17,0.929,7.856-3.222,8.008-7.505c0.133-4.283-3.222-7.866-7.505-7.998   c-0.893-0.123-19.489-0.515-36.307,4.375c-0.843,0.104-1.613,0.345-2.363,0.714c-0.572,0.186-1.164,0.321-1.728,0.521   c-4.871,2.369-10.557,1.365-14.49-2.597l-2.682-2.653c-3.573-3.582-4.719-8.946-2.834-13.874c0.39-1.108,0.68-2.273,1.016-3.415   c0.064-0.203,0.131-0.392,0.18-0.601c4.615-16.168,4.261-34.739,4.243-35.596c-0.104-4.264-3.525-8.51-7.96-7.543   c-4.283,0.095-7.676,3.658-7.562,7.941c0.008,0.172,0.261,13.584-2.426,26.177c-4.375,0.489-13.767-0.974-17.74-9.252   c-5.932-12.357-1.876-23.805,2.549-31.197c1.516-2.521,3.525-4.966,5.97-7.278c5.755-5.449,59.829-59.005,112.513-111.553   c12.714,19.587,27.868,38.409,45.414,55.963c17.406,17.398,36.095,32.475,55.544,45.132   C203.798,409.185,150.29,463.207,144.835,468.973z M267.501,345.326c-19.531-12.426-38.289-27.461-55.751-44.923   c-17.597-17.597-32.723-36.491-45.175-56.16c37.095-37.04,71.296-71.407,85.568-86.275c12.764,19.774,28.06,38.803,45.816,56.577   c17.489,17.481,36.235,32.597,55.745,45.278C338.739,274.199,304.446,308.327,267.501,345.326z M365.427,248.973   c-19.785-12.496-38.789-27.706-56.476-45.402c-17.984-17.993-33.4-37.289-45.956-57.339c10.369-11.435,23.067-20.87,36.494-28.551   c0.208,0.118,0.349,0.31,0.572,0.411l113.24,51.203C404.276,195.671,389.224,227.501,365.427,248.973z M426.499,120.006   c-0.644,0.957-1.061,2.047-1.232,3.175c-0.05,0.334-2.056,13.187-7.244,31.214l-101.093-45.712   c36.09-16.577,71.15-22.045,71.7-22.129c1.137-0.171,2.217-0.588,3.165-1.213l8.245-5.496l31.936,31.955L426.499,120.006z    M446.703,103.375l-37.925-37.925l30.723-30.704l37.925,37.925L446.703,103.375z"/><path d="M462.7,298.451c-9.23-21.114-14.158-41.555-14.215-41.763c-1.668-7.003-13.438-6.956-15.106,0.009   c-0.038,0.199-4.947,20.64-14.196,41.754c-2.843,6.463-6.065,13.021-9.23,19.408c-8.32,16.868-15.504,31.424-15.504,43.062   c0,32.107,20.867,58.243,46.492,58.243c25.625,0,46.492-26.136,46.492-58.243c0-11.637-7.183-26.193-15.504-43.062   C468.765,311.472,465.543,304.914,462.7,298.451z M440.941,403.622c-17.077,0-30.951-19.143-30.951-42.702   c0-8.017,7.051-22.346,13.893-36.201c3.26-6.596,6.596-13.362,9.514-20.052c2.957-6.709,5.459-13.305,7.543-19.275   c2.085,5.97,4.606,12.566,7.543,19.275c2.919,6.69,6.255,13.457,9.515,20.052c6.842,13.855,13.893,28.183,13.893,36.201   C471.892,384.479,458.018,403.622,440.941,403.622z"/></g><text x="0" y="527" fill="#000000" font-size="5px" font-weight="bold" font-family="'Helvetica Neue', Helvetica, Arial-Unicode, Arial, Sans-serif">Created by Econceptive</text><text x="0" y="532" fill="#000000" font-size="5px" font-weight="bold" font-family="'Helvetica Neue', Helvetica, Arial-Unicode, Arial, Sans-serif">from the Noun Project</text></svg>