<svg xmlns="http://www.w3.org/2000/svg" xmlns:xlink="http://www.w3.org/1999/xlink" version="1.1" x="0px" y="0px" viewBox="0 0 100 125" style="enable-background:new 0 0 100 100;" xml:space="preserve"><path d="M50,10c-22.0556641,0-40,17.9443359-40,40c0,6.6152344,1.6160278,12.9543457,4.567749,18.5842896  c-0.0786133,0.0742798-0.1626587,0.1395264-0.239624,0.2164917c-4.3935547,4.3935547-4.3935547,11.5419922,0,15.9355469  c4.2285156,4.2285156,19.4892578,5.2216797,20.1376953,5.2617188C34.4863281,89.9990234,34.5068359,90,34.5273438,90  c0.2646484,0,0.5185547-0.1044922,0.7070312-0.2929688c0.203125-0.203125,0.3085938-0.4824219,0.2910156-0.7685547  c-0.0400391-0.6484375-1.0341797-15.9091797-5.2626953-20.1376953c-3.8235474-3.8235474-9.732666-4.3145752-14.0964966-1.4840088  C13.4736328,62.0524902,12,56.1522827,12,50c0-20.953125,17.046875-38,38-38s38,17.046875,38,38S70.953125,88,50,88  c-0.5527344,0-1,0.4472656-1,1s0.4472656,1,1,1c22.0556641,0,40-17.9443359,40-40S72.0556641,10,50,10z M22.2949219,67.5048828  c2.3740234,0,4.7470703,0.9033203,6.5537109,2.7099609c2.8222656,2.8222656,4.1914062,12.84375,4.5966797,17.703125  c-4.859375-0.4052734-14.8808594-1.7734375-17.703125-4.5957031c-3.555603-3.555603-3.604248-9.3021851-0.1621704-12.9279175  c0.8477783,1.4296265,1.7852173,2.8053589,2.8096313,4.1221924v5.8994751c0,0.5527344,0.4472656,1,1,1s1-0.4472656,1-1V76.895752  c2.4165649,2.6506958,5.2019043,5.0117798,8.3378906,6.9851074c0.4677734,0.2939453,1.0849609,0.1533203,1.3789062-0.3144531  c0.2939453-0.4667969,0.1533203-1.0849609-0.3144531-1.3789062c-3.2479858-2.0436401-6.1010742-4.5244751-8.5323486-7.3251953  h4.6837158c0.5527344,0,1-0.4472656,1-1s-0.4472656-1-1-1h-6.3071899c-0.9144287-1.2111816-1.7506714-2.4743652-2.510376-3.7825928  C18.6826172,68.0321655,20.487915,67.5048828,22.2949219,67.5048828z"/><path d="M29.125,64.453125c0.1787109,0.3105469,0.5087891,0.5009766,0.8662109,0.5009766H46.65625c0.5527344,0,1-0.4472656,1-1  s-0.4472656-1-1-1H31.7255859l7.2683716-12.5483398l0.7814331,2.9165039  c0.1191406,0.4472656,0.5234375,0.7412109,0.9648438,0.7412109c0.0859375,0,0.1728516-0.0107422,0.2597656-0.0341797  c0.5332031-0.1425781,0.8496094-0.6914062,0.7070312-1.2246094l-1.4003906-5.2265625  c-0.1416016-0.5341797-0.6904297-0.8515625-1.2246094-0.7070312l-5.2265625,1.4003906  c-0.5332031,0.1425781-0.8496094,0.6914062-0.7070312,1.2246094c0.1425781,0.5341797,0.6904297,0.8505859,1.2246094,0.7070312  l2.8734131-0.7698975L29.1259766,63.453125C28.9462891,63.7626953,28.9462891,64.1435547,29.125,64.453125z"/><path d="M57.4091797,60.8349609c0.390625-0.390625,0.390625-1.0234375,0-1.4140625s-1.0234375-0.390625-1.4140625,0  l-3.8261719,3.8261719c-0.390625,0.390625-0.390625,1.0234375,0,1.4140625l3.8261719,3.8261719  c0.1953125,0.1953125,0.4511719,0.2929688,0.7070312,0.2929688s0.5117188-0.0976562,0.7070312-0.2929688  c0.390625-0.390625,0.390625-1.0234375,0-1.4140625l-2.1191406-2.1191406h14.71875  c0.3574219,0,0.6875-0.1904297,0.8662109-0.5009766c0.1787109-0.3095703,0.1787109-0.6904297-0.0009766-1l-8.5732422-14.8027344  c-0.2763672-0.4775391-0.8886719-0.6416016-1.3662109-0.3642578c-0.4785156,0.2763672-0.6416016,0.8886719-0.3642578,1.3662109  l7.7041016,13.3017578h-12.984375L57.4091797,60.8349609z"/><path d="M59.4208984,36.8359375c-0.5322266-0.1425781-1.0820312,0.1738281-1.2246094,0.7070312l-0.7363892,2.7490845  l-6.5946655-11.3848267c-0.3574219-0.6171875-1.3730469-0.6171875-1.7304688,0l-7.5625,13.0556641  c-0.2773438,0.4775391-0.1142578,1.0898438,0.3642578,1.3662109c0.4765625,0.2773438,1.0888672,0.1132812,1.3662109-0.3642578  L50,31.4033203l5.8360596,10.0748901l-3.0421143-0.8151245c-0.5332031-0.140625-1.0820312,0.1728516-1.2246094,0.7070312  c-0.1425781,0.5332031,0.1738281,1.0820312,0.7070312,1.2246094l5.2265625,1.4003906  c0.0849609,0.0224609,0.171875,0.0341797,0.2587891,0.0341797c0.1738281,0,0.3466797-0.0458984,0.5-0.1337891  c0.2294922-0.1328125,0.3974609-0.3515625,0.4658203-0.6074219l1.4003906-5.2275391  C60.2705078,37.5273438,59.9541016,36.9785156,59.4208984,36.8359375z"/></svg>