<svg xmlns="http://www.w3.org/2000/svg" data-name="Layer 1" viewBox="0 0 512 640" x="0px" y="0px"><title>Artboard 59</title><path d="M109.67,117.09a74.58,74.58,0,0,0-74.5,74.5V486a18,18,0,0,0,18,18H318.09a18,18,0,0,0,18-18V191.59a74.58,74.58,0,0,0-74.5-74.5h-1.86v-23h4.66a21,21,0,0,0,21-21V29a21,21,0,0,0-21-21H106.87a21,21,0,0,0-21,21V73.08a21,21,0,0,0,21,21h4.66v23Zm-2.8-39a5,5,0,0,1-5-5V29a5,5,0,0,1,5-5H264.39a5,5,0,0,1,5,5V73.08a5,5,0,0,1-5,5Zm136.86,16v23H127.53v-23Zm17.86,39a58.56,58.56,0,0,1,58.5,58.5V486a2,2,0,0,1-2,2H53.17a2,2,0,0,1-2-2V191.59a58.56,58.56,0,0,1,58.5-58.5Z"/><path d="M95,219.18v197A23.87,23.87,0,0,0,118.85,440H252.41a23.87,23.87,0,0,0,23.83-23.84v-197a23.87,23.87,0,0,0-23.83-23.84H118.85A23.87,23.87,0,0,0,95,219.18Zm16,0a7.85,7.85,0,0,1,7.83-7.84H252.41a7.85,7.85,0,0,1,7.83,7.84v197a7.85,7.85,0,0,1-7.83,7.84H118.85a7.85,7.85,0,0,1-7.83-7.84Z"/><path d="M130,334.7a71.18,71.18,0,0,0,50.47,31.82,8,8,0,0,0,3.11.64H184l1.66-.1,1.66.1h.43a7,7,0,0,0,.92-.06l.26,0a6.3,6.3,0,0,0,.84-.18l.12,0a7.14,7.14,0,0,0,.92-.32,71.16,71.16,0,0,0,50.46-31.82h0A65,65,0,0,0,245,270.87l0-.06,0,0-.13-.23-.23-.43-.27-.39-.17-.24c-.11-.15-.23-.29-.35-.44l-.14-.15c-.13-.14-.26-.28-.4-.41l-.15-.14c-.13-.12-.27-.23-.41-.34l-.2-.15-.37-.26-.29-.19-.3-.16-.41-.21-.22-.09-.51-.21-.17-.05-.57-.17-.18,0-.57-.11-.29,0a3.73,3.73,0,0,0-.47,0h-.89a72.14,72.14,0,0,0-51.6,25,72.14,72.14,0,0,0-51.6-25h-.9a3.88,3.88,0,0,0-.48,0l-.27,0c-.21,0-.43.07-.64.12l-.09,0c-.24.06-.47.13-.7.21h0a5.72,5.72,0,0,0-.68.28h0c-.22.1-.42.2-.63.32l-.07,0c-.18.11-.36.22-.54.35l-.12.08a5.19,5.19,0,0,0-.46.36l-.16.13a4.89,4.89,0,0,0-.4.39l-.16.15-.38.45-.12.15c-.14.18-.27.37-.39.56a.35.35,0,0,0,0,.08,9.09,9.09,0,0,0-.47.87A65,65,0,0,0,130,334.69Zm102.62-51.89a49.07,49.07,0,0,1-4.89,43.29h0A54.25,54.25,0,0,1,200,347.9c.16-.74.31-1.47.45-2.21a8.09,8.09,0,0,0,.93-2.46c4.55-23.09,19.43-33.05,20-33.44a8,8,0,0,0-8.57-13.51c-.52.33-8,5.2-15.21,15.5a65.62,65.62,0,0,0-2.71-6.36A55.28,55.28,0,0,1,232.64,282.81Zm-94,0a55.08,55.08,0,0,1,39,24.53h0a49.21,49.21,0,0,1,6.84,36.43l-18.47-34.94a8,8,0,0,0-14.15,7.48l16,30.27a54,54,0,0,1-24.39-20.48h0A49.07,49.07,0,0,1,138.62,282.81Z"/><path d="M418.4,502.05h5.93a52.56,52.56,0,0,0,52.5-52.5V336.87a52.56,52.56,0,0,0-52.5-52.5H418.4a52.56,52.56,0,0,0-52.5,52.5V449.55A52.56,52.56,0,0,0,418.4,502.05ZM381.9,336.87a36.54,36.54,0,0,1,36.5-36.5h5.93a36.54,36.54,0,0,1,36.5,36.5v48.34H381.9Zm0,64.34h78.93v48.34a36.54,36.54,0,0,1-36.5,36.5H418.4a36.54,36.54,0,0,1-36.5-36.5Z"/><text x="0" y="527" fill="#000000" font-size="5px" font-weight="bold" font-family="'Helvetica Neue', Helvetica, Arial-Unicode, Arial, Sans-serif">Created by Sou</text><text x="0" y="532" fill="#000000" font-size="5px" font-weight="bold" font-family="'Helvetica Neue', Helvetica, Arial-Unicode, Arial, Sans-serif">from the Noun Project</text></svg>