<svg xmlns="http://www.w3.org/2000/svg" data-name="Layer 1 copy" viewBox="0 0 48 60" x="0px" y="0px"><title>E-Comerce_expand</title><path d="M47.25,20.312H13.909a.75.75,0,0,0-.75.75V47.206a.75.75,0,0,0,.75.75H47.25a.75.75,0,0,0,.75-.75V21.062A.75.75,0,0,0,47.25,20.312ZM46.5,46.456H14.659V21.812H46.5Z"/><path d="M10.472,46.456H1.5V12.175H7.8v2.146h-.38a.75.75,0,0,0,0,1.5H9.67a.75.75,0,0,0,0-1.5H9.3V12.175H20.124v2.146h-.377a.75.75,0,0,0,0,1.5H22a.75.75,0,0,0,0-1.5h-.377V12.175h6.3v5.49a.75.75,0,0,0,1.5,0v-6.24a.75.75,0,0,0-.75-.75H21.624V6.958a6.914,6.914,0,1,0-13.828,0v3.717H.75a.75.75,0,0,0-.75.75V47.206a.75.75,0,0,0,.75.75h9.722a.75.75,0,1,0,0-1.5ZM9.3,6.958a5.414,5.414,0,1,1,10.828,0v3.717H9.3Z"/><path d="M23.534,25.827h.339v1.378a6.707,6.707,0,0,0,13.413,0V25.827h.339a.75.75,0,0,0,0-1.5H35.446a.75.75,0,0,0,0,1.5h.34v1.378a5.207,5.207,0,0,1-10.413,0V25.827h.339a.75.75,0,0,0,0-1.5H23.534a.75.75,0,0,0,0,1.5Z"/></svg>